<svg xmlns="http://www.w3.org/2000/svg" viewBox="0 0 1024 1024" width="1024" height="1024">
  <defs>
    <clipPath id="tileClip">
      <rect x="64" y="64" width="896" height="896" rx="210"/>
    </clipPath>

    <linearGradient id="tileBase" x1="186" y1="84" x2="838" y2="960" gradientUnits="userSpaceOnUse">
      <stop offset="0" stop-color="#596574"/>
      <stop offset="0.48" stop-color="#252E37"/>
      <stop offset="1" stop-color="#12171D"/>
    </linearGradient>

    <radialGradient id="tileWarm" cx="0" cy="0" r="1" gradientUnits="userSpaceOnUse" gradientTransform="translate(410 300) rotate(47) scale(620 520)">
      <stop offset="0" stop-color="#FFD747" stop-opacity="0.48"/>
      <stop offset="0.34" stop-color="#DCA91E" stop-opacity="0.16"/>
      <stop offset="1" stop-color="#10151B" stop-opacity="0"/>
    </radialGradient>

    <linearGradient id="tileSheen" x1="168" y1="88" x2="812" y2="520" gradientUnits="userSpaceOnUse">
      <stop offset="0" stop-color="#FFFFFF" stop-opacity="0.34"/>
      <stop offset="0.48" stop-color="#FFFFFF" stop-opacity="0.07"/>
      <stop offset="1" stop-color="#FFFFFF" stop-opacity="0"/>
    </linearGradient>

    <linearGradient id="tileStroke" x1="154" y1="82" x2="850" y2="938" gradientUnits="userSpaceOnUse">
      <stop offset="0" stop-color="#FFFFFF" stop-opacity="0.46"/>
      <stop offset="0.5" stop-color="#9BA6B4" stop-opacity="0.12"/>
      <stop offset="1" stop-color="#000000" stop-opacity="0.52"/>
    </linearGradient>

    <linearGradient id="terminalFace" x1="270" y1="626" x2="764" y2="830" gradientUnits="userSpaceOnUse">
      <stop offset="0" stop-color="#1A2530"/>
      <stop offset="1" stop-color="#0A1015"/>
    </linearGradient>

    <radialGradient id="bulbGlass" cx="0" cy="0" r="1" gradientUnits="userSpaceOnUse" gradientTransform="translate(450 318) rotate(42) scale(240 290)">
      <stop offset="0" stop-color="#8895A3"/>
      <stop offset="0.45" stop-color="#44505B"/>
      <stop offset="1" stop-color="#151B20"/>
    </radialGradient>

    <radialGradient id="bulbCore" cx="0" cy="0" r="1" gradientUnits="userSpaceOnUse" gradientTransform="translate(512 376) scale(175 155)">
      <stop offset="0" stop-color="#FFF4A6" stop-opacity="0.84"/>
      <stop offset="0.32" stop-color="#FFD83C" stop-opacity="0.38"/>
      <stop offset="1" stop-color="#FFD83C" stop-opacity="0"/>
    </radialGradient>

    <linearGradient id="letterFill" x1="460" y1="242" x2="566" y2="470" gradientUnits="userSpaceOnUse">
      <stop offset="0" stop-color="#FFF59B"/>
      <stop offset="0.52" stop-color="#FFD72E"/>
      <stop offset="1" stop-color="#F6A90B"/>
    </linearGradient>

    <linearGradient id="metal" x1="404" y1="532" x2="620" y2="686" gradientUnits="userSpaceOnUse">
      <stop offset="0" stop-color="#B9C0C8"/>
      <stop offset="0.5" stop-color="#6D7680"/>
      <stop offset="1" stop-color="#3C454D"/>
    </linearGradient>

    <linearGradient id="cursor" x1="650" y1="722" x2="822" y2="722" gradientUnits="userSpaceOnUse">
      <stop offset="0" stop-color="#7AFB83"/>
      <stop offset="1" stop-color="#2FC36B"/>
    </linearGradient>

    <radialGradient id="softShadow" cx="0" cy="0" r="1" gradientUnits="userSpaceOnUse" gradientTransform="translate(512 844) scale(430 92)">
      <stop offset="0" stop-color="#000000" stop-opacity="0.5"/>
      <stop offset="1" stop-color="#000000" stop-opacity="0"/>
    </radialGradient>

    <radialGradient id="warmHalo" cx="0" cy="0" r="1" gradientUnits="userSpaceOnUse" gradientTransform="translate(512 366) scale(285)">
      <stop offset="0" stop-color="#FFD83C" stop-opacity="0.26"/>
      <stop offset="0.58" stop-color="#FFD83C" stop-opacity="0.08"/>
      <stop offset="1" stop-color="#FFD83C" stop-opacity="0"/>
    </radialGradient>
  </defs>

  <ellipse cx="512" cy="860" rx="430" ry="94" fill="url(#softShadow)"/>

  <g>
    <rect x="72" y="84" width="880" height="868" rx="204" fill="#000000" opacity="0.26"/>
    <rect x="64" y="64" width="896" height="896" rx="210" fill="url(#tileBase)"/>
    <g clip-path="url(#tileClip)">
      <rect x="64" y="64" width="896" height="896" fill="url(#tileWarm)"/>
      <path d="M104 282C144 124 258 86 476 86H922V286C810 344 686 374 550 374C382 374 232 344 104 282Z" fill="url(#tileSheen)"/>
      <path d="M126 825C284 872 458 894 648 884C764 878 867 850 960 800V960H64V808C84 814 104 820 126 825Z" fill="#05080B" opacity="0.22"/>
    </g>
    <rect x="64" y="64" width="896" height="896" rx="210" fill="none" stroke="url(#tileStroke)" stroke-width="4"/>
  </g>

  <g>
    <rect x="250" y="642" width="540" height="196" rx="52" fill="#000000" opacity="0.24"/>
    <rect x="242" y="626" width="540" height="196" rx="52" fill="url(#terminalFace)" opacity="0.96"/>
    <rect x="270" y="654" width="484" height="140" rx="34" fill="#0D141A" opacity="0.62"/>
    <path d="M308 706L350 736L308 766" fill="none" stroke="#FFD33D" stroke-width="24" stroke-linecap="round" stroke-linejoin="round"/>
    <rect x="650" y="740" width="142" height="24" rx="12" fill="url(#cursor)"/>
  </g>

  <circle cx="512" cy="370" r="286" fill="url(#warmHalo)"/>

  <g>
    <circle cx="512" cy="386" r="202" fill="#000000" opacity="0.22"/>
    <circle cx="512" cy="368" r="184" fill="url(#bulbGlass)" stroke="#0B1015" stroke-width="18"/>
    <circle cx="512" cy="368" r="148" fill="url(#bulbCore)"/>
    <ellipse cx="448" cy="304" rx="48" ry="84" fill="#FFFFFF" opacity="0.20" transform="rotate(-28 448 304)"/>
    <path d="M418 240C455 214 518 202 570 224" fill="none" stroke="#FFFFFF" stroke-width="18" stroke-linecap="round" opacity="0.12"/>

    <text x="512" y="432" text-anchor="middle" font-family="Arial, Helvetica, sans-serif" font-size="224" font-weight="900" fill="#FFB800" opacity="0.34" stroke="#FFD83C" stroke-width="18">W</text>
    <text x="512" y="432" text-anchor="middle" font-family="Arial, Helvetica, sans-serif" font-size="224" font-weight="900" fill="url(#letterFill)">W</text>

    <path d="M412 532H612C610 570 586 600 552 614H472C438 600 414 570 412 532Z" fill="url(#metal)"/>
    <rect x="398" y="564" width="228" height="38" rx="18" fill="#77818B"/>
    <rect x="414" y="598" width="196" height="36" rx="17" fill="#66717B"/>
    <rect x="432" y="630" width="160" height="34" rx="16" fill="#56616B"/>
    <rect x="456" y="660" width="112" height="28" rx="14" fill="#444E57"/>

    <path d="M410 570H614M426 604H598M444 636H580" stroke="#303840" stroke-width="10" stroke-linecap="round" opacity="0.55"/>
    <path d="M440 528C468 548 556 548 584 528" fill="none" stroke="#FFFFFF" stroke-width="8" stroke-linecap="round" opacity="0.16"/>
  </g>
</svg>
